<svg width="20" height="20" viewBox="0 0 20 20" fill="none" xmlns="http://www.w3.org/2000/svg">
<rect width="20" height="20" fill="white"/>
<path fill-rule="evenodd" clip-rule="evenodd" d="M15.7817 4.21973C16.0745 4.51266 16.0745 4.98754 15.7815 5.28039L6.55972 14.5L12.1734 14.5C12.5876 14.5 12.9234 14.8358 12.9234 15.25C12.9234 15.6642 12.5876 16 12.1734 16L4.74875 16C4.54984 16 4.35907 15.921 4.21842 15.7803C4.07777 15.6397 3.99875 15.4489 3.99875 15.25L3.99875 7.82538C3.99875 7.41117 4.33454 7.07538 4.74875 7.07538C5.16296 7.07538 5.49875 7.41117 5.49875 7.82538L5.49875 13.4396L14.721 4.21961C15.0139 3.92675 15.4888 3.92681 15.7817 4.21973Z" fill="black"/>
</svg>
