<svg width="20" height="20" viewBox="0 0 20 20" fill="none" xmlns="http://www.w3.org/2000/svg">
<rect width="20" height="20" fill="white"/>
<path fill-rule="evenodd" clip-rule="evenodd" d="M10 3.00003C10.4142 3.00003 10.75 3.33582 10.75 3.75003L10.75 14.4394L14.7197 10.4697C15.0126 10.1768 15.4875 10.1768 15.7803 10.4697C16.0732 10.7626 16.0732 11.2375 15.7803 11.5304L10.5303 16.7804C10.2375 17.0733 9.76258 17.0733 9.46968 16.7804L4.21969 11.5304C3.92679 11.2375 3.92679 10.7626 4.21969 10.4697C4.51258 10.1768 4.98745 10.1768 5.28035 10.4697L9.25001 14.4394L9.25002 3.75003C9.25002 3.33582 9.5858 3.00003 10 3.00003Z" fill="black"/>
</svg>
