<svg width="20" height="20" viewBox="0 0 20 20" fill="none" xmlns="http://www.w3.org/2000/svg">
<rect width="20" height="20" fill="white"/>
<path fill-rule="evenodd" clip-rule="evenodd" d="M9.46969 3.2197C9.76258 2.92681 10.2375 2.92681 10.5303 3.2197L15.7803 8.4697C16.0732 8.76259 16.0732 9.23747 15.7803 9.53036C15.4875 9.82325 15.0126 9.82325 14.7197 9.53036L10.75 5.56069L10.75 16.25C10.75 16.6642 10.4142 17 10 17C9.5858 17 9.25002 16.6642 9.25002 16.25L9.25002 5.56069L5.28035 9.53036C4.98745 9.82325 4.51258 9.82325 4.21969 9.53036C3.92679 9.23747 3.92679 8.76259 4.21969 8.4697L9.46969 3.2197Z" fill="black"/>
</svg>
