<svg width="20" height="20" viewBox="0 0 20 20" fill="none" xmlns="http://www.w3.org/2000/svg">
<rect width="20" height="20" fill="white"/>
<path fill-rule="evenodd" clip-rule="evenodd" d="M5.5 6.55968L5.5 12.1733C5.5 12.5876 5.16421 12.9233 4.75 12.9233C4.33579 12.9233 4 12.5876 4 12.1733L4 4.74872C4 4.33451 4.33579 3.99872 4.75 3.99872L12.1746 3.99872C12.5888 3.99872 12.9246 4.3345 12.9246 4.74872C12.9246 5.16293 12.5888 5.49872 12.1746 5.49872L6.56035 5.49872L15.7804 14.721C16.0733 15.0139 16.0732 15.4888 15.7803 15.7816C15.4873 16.0745 15.0125 16.0744 14.7196 15.7815L5.5 6.55968Z" fill="black"/>
</svg>
